<svg version="1.2" xmlns="http://www.w3.org/2000/svg" viewBox="0 0 594 222" width="594" height="222">
	<title>studiologo</title>
	<style>
		.s0 { opacity: 0;fill: #000000 } 
		.s1 { fill: #ff9d03 } 
		.s2 { fill: #3d86f2 } 
		.s3 { fill: #07101d;stroke: #07101d;stroke-width: .4 } 
	</style>
	<g>
		<g>
			<g>
				<path fill-rule="evenodd" class="s0" d="m6 22.7h235.4v162.7h-235.4z"/>
				<g id="图层_1">
					<path class="s1" d="m229.4 107c0 0-18.3-13.9-43.2-8.2 0 0-7-28.7-36-36.2-29-7.6-57.7 9.9-63 31.9 0 0 17.9-28.5 48.2-25.1 30.3 3.5 43.2 22.2 47.2 37.8 0 0 26-4.8 46.8-0.2z"/>
					<path class="s2" d="m231.4 103.9c0 0-5.2-23.1-35.2-26.8 0 0-13.8-43.6-64.1-44.4-48.5-0.7-66.5 45.2-67 49.8 0 0-42.4 2-48.6 42.8-5.7 38 35.4 50.1 35.4 50.1 0 0-27.3-23.3-13.9-51.8 13.4-28.4 40.5-24.7 40.5-24.7 0 0 8.1-42.8 54.8-45.9 42.7-2.9 57.9 37.3 57.9 37.3 0 0 24.2-2.1 40.2 13.6z"/>
				</g>
			</g>
		</g>
	</g>
	<g>
		<g>
			<g>
				<g>
					<g>
						<path class="s3" d="m107.9 137.2h13.8l-0.6 3.8h6.2l-1.1 7.7h-6.1l-1.2 8.4-14.8 6.9 20 10.7h-24.5l-8.6-4.6-9.8 4.6h-24.6l23-10.7-12.9-6.9 1.2-8.4h-6.1l1.1-7.7h6.1l0.6-3.8h13.8l-0.6 3.8h24.5zm3.4-2.4l0.6-4.6h-30.6l-0.7 4.6h-16.8l1.7-12.2h24.5l0.2-1.6-2.5-3h18.3l-0.7 4.6h24.6l-1.7 12.2zm-18.6 23l13.2-6.1 0.4-3.1h-24.6l-0.4 3.1z"/>
						<path class="s3" d="m136.9 157.6l3.7-26.8h21.3l1.4-10.4-2.6-2.4h18.7l-0.5 3.5h23.8l-1 6.9h-23.9l-0.3 2.4h22.5l-3.7 26.8h-21.4l-0.5 3.2h24.3l-1 6.8h-24.3l-1.1 8.3h-16.1l1.1-8.3h-25l0.9-6.8h25.1l0.5-3.2zm45.8-7.1l0.4-3.1h-30.1l-0.4 3.1zm1.2-9.8l0.5-3h-30.1l-0.5 3z"/>
						<path class="s3" d="m236.1 130.3h7.9l-8.4 19.6 2.5 18.6h-7.1l-0.9-7.3-2.7 7.4h-6.9l-1 7.3h-12.4l7.5-53.4-2.4-3.1h64.3l-7.3 51.9q-0.3 2-2 3.4-1.7 1.3-3.6 1.3h-14.1l7.8-7.3v-0.2h-7.3l-0.9-7.3-2.8 7.4h-8.2l8.6-19.2-2.6-19.1h7.7l0.6 7.9 2.6-7.9h7.4l-7.7 19.5 2.6 18.3 5.8-41h-36.7l-0.5 3.2h7.2l0.4 7.9zm-10.3 0.5l-4.8 34.6 6.9-16z"/>
						<path class="s3" d="m350.2 150.1h-13.4l-7.2-5.2-8.4 5.1h-13.9l1-6.8h7.9l6.1-3.7-4.3-3.2h-8.7l10.6-16.1-1.9-2.1h13.8l-2.4 3.8h23.1l-1.4 9.6-12.8 8 5.1 3.7h7.8zm-41.6 1.5h39.7l-3.2 22.9h-39.7zm-24.8-7.4l1.1-7.7 10.5-16.4-1.8-2h16.9l-11.8 18.4h9.2l-11.8 18.4h9l-1.1 7.7h-22.8l1.1-7.7 6.9-10.7zm19.7 21.5l-1 7.6-23.2 1.4 1.1-7.7zm15.1 1.3h15.1l1.1-7.7h-15.1zm20.9-38.4h-14.7l-0.5 0.8 6.5 4.6z"/>
						<path class="s3" d="m354.7 165.5h26l5.2-36.8h-24.5l1-7.6h64.4l-1 7.6h-24.6l-5.1 36.8h26l-1 7.7h-67.5z"/>
						<path class="s3" d="m451.3 141l5.7-21-1.7-2h14.5l-1.7 6.1h31.5l-1 7.7h-17l-1.2 8.5h13.9l-1.1 7.5h-13.9l-1.2 8.5h15.4l-1 7.7h-15.4l-1.7 12.1h-14.6l6.2-44.3h-1l-2.5 9.2zm1-23l-1.3 9.2-6.9 48.9h-14.6l6.5-45.9-4.8 0.9 1.3-9.2z"/>
						<path class="s3" d="m551.1 118.1l-0.7 4.4h24.1l-1.7 12.3h-4.6l-0.8 5.7h-30.7l-7.7 5.8h22.2l-1.2-4.2h13l4 12.6h-13l-0.4-1.3h-8.1l-0.5 4.3h23l-0.9 6.4h-23.1l-0.5 3.8h24.5l-0.9 6.3h-64.2l0.9-6.3h23.8l0.5-3.8h-20.8l0.9-6.4h20.9l0.5-4.3h-18.8l1.1-7.2 7.8-5.7h-7.4l0.8-5.7h-4.5l1.6-12.3h24l0.3-1.4-2.6-3zm-28.2 12.1l-0.6 3.6h36.8l0.6-3.6z"/>
					</g>
				</g>
			</g>
		</g>
	</g>
</svg>